{"title":"Solomon.and.Sheba.1959.DVDRip.x264-PsiX","uid":8963559,"size":1564197419,"categoryP":"video","categoryS":"movies","magnet":"?xt=urn:btih:c903417d5f4a715666ab3981a813119623b461db&amp;dn=Solomon.and.Sheba.1959.DVDRip.x264-PsiX&amp;tr=udp%3A%2F%2Ftracker.openbittorrent.com%3A80&amp;tr=udp%3A%2F%2Fopen.demonii.com%3A1337&amp;tr=udp%3A%2F%2Ftracker.coppersurfer.tk%3A6969&amp;tr=udp%3A%2F%2Fexodus.desync.com%3A6969","seeders":4,"leechers":0,"uploader":"RodrigoRJ","files":-1,"time":1380160349,"description":"Solomon.and.Sheba.1959.DVDRip.x264-PsiX.mkv\n\nFormat :Matroska\n\nFormat version :Version 4 / Version 2\n\nFile size :1.46 GiB\n\nDuration :2h 15mn\n\nOverall bit rate :1 539 Kbps\n\nEncoded date :UTC 2013-02-17 22:52:05\n\nWriting application :mkvmerge v6.0.0 ('Coming Up For Air') built on Jan 20 2013 09:52:00\n\nWriting library :libebml v1.3.0 + libmatroska v1.4.0\n\nVideo\n\nID :1\n\nFormat :AVC\n\nFormat/Info :Advanced Video Codec\n\nFormat profile :&lt;a class=&quot;__cf_email__&quot; href=&quot;/cdn-cgi/l/email-protection&quot; data-cfemail=&quot;b3fbdad4dbf3ff879d82&quot;&gt;[email&amp;#160;protected]&lt;/a&gt;&lt;script cf-hash='f9e31' type=&quot;text/javascript&quot;&gt;\n/* &lt;![CDATA[ */!function(){try{var t=&quot;currentScript&quot;in document?document.currentScript:function(){for(var t=document.getElementsByTagName(&quot;script&quot;),e=t.length;e--;)if(t[e].getAttribute(&quot;cf-hash&quot;))return t[e]}();if(t&amp;&amp;t.previousSibling){var e,r,n,i,c=t.previousSibling,a=c.getAttribute(&quot;data-cfemail&quot;);if(a){for(e=&quot;&quot;,r=parseInt(a.substr(0,2),16),n=2;a.length-n;n+=2)i=parseInt(a.substr(n,2),16)^r,e+=String.fromCharCode(i);e=document.createTextNode(e),c.parentNode.replaceChild(e,c)}}}catch(u){}}();/* ]]&gt; */&lt;/script&gt;\n\nFormat settings, CABAC :Yes\n\nFormat settings, ReFrames :4 frames\n\nCodec ID :V_MPEG4/ISO/AVC\n\nDuration :2h 15mn\n\nBit rate :1 345 Kbps\n\nWidth :720 pixels\n\nHeight :304 pixels\n\nDisplay aspect ratio :2.35:1\n\nFrame rate mode :Constant\n\nFrame rate :25.000 fps\n\nColor space :YUV\n\nChroma subsampling :4:2:0\n\nBit depth :8 bits\n\nScan type :Progressive\n\nBits/(Pixel*Frame) :0.246\n\nStream size :1.25 GiB (86%)\n\nWriting library :x264 core 129 r2245 bc13772\n\nAudio\n\nID :2\n\nFormat :AC-3\n\nFormat/Info :Audio Coding 3\n\nThe film's theme differs substantially from Biblical sources, most notably in\n\nrepresenting the Queen of Sheba as an ally of ancient Egypt in opposition to\n\nKing Solomon of Israel, and in her having a love affair with Solomon.\n\nUnder the rule of King David, Israel is united and prosperous, although\n\nsurrounded by enemies, including Egypt and its allies. The ageing King favours\n\nSolomon to succeed him, but his elder brother Adonijah (George Sanders),\n\na warrior, declares himself King. When David learns of this, he publicly announces\n\nSolomon to be his successor. Adonijah and Joab, his general, withdraw in rage,\n\nbut Solomon later offers his brother the command of the army, knowing that\n\nit may be used against him.\n\nIsrael continues to prosper under Solomon's rule. The Queen of Sheba\n\n(Gina Lollobrigida) conspires with the Egyptian Pharaoh to undermine\n\nSolomon's rule by seducing him and introducing Sheban pagan....\n\nDirected by ..............King Vidor\n\nProduced by ..................Ted Richmond, Tyrone Power, Edward Small\n\nScreenplay by .................Anthony Veiller, Paul Dudley, George Bruce\n\nStory by................Crane Wilbur\n\nStarring ...............Yul Brynner, Gina Lollobrigida, George Sanders, Marisa Pavan\n\nMusic by ................Mario Nascimbene, Malcolm Arnold (add. music)\n\n========================================================\n\n\nSolomon.and.Sheba.1959.DVDRip.x264-PsiX.mkv\n\nFormat :Matroska\n\nFormat version :Version 4 / Version 2\n\nFile size :1.46 GiB\n\nDuration :2h 15mn\n\nOverall bit rate :1 539 Kbps\n\nEncoded date :UTC 2013-02-17 22:52:05\n\nWriting application :mkvmerge v6.0.0 ('Coming Up For Air') built on Jan 20 2013 09:52:00\n\nWriting library :libebml v1.3.0 + libmatroska v1.4.0\n\nVideo\n\nID :1\n\nFormat :AVC\n\nFormat/Info :Advanced Video Codec\n\nFormat profile :&lt;a class=&quot;__cf_email__&quot; href=&quot;/cdn-cgi/l/email-protection&quot; data-cfemail=&quot;256d4c424d6569110b14&quot;&gt;[email&amp;#160;protected]&lt;/a&gt;&lt;script cf-hash='f9e31' type=&quot;text/javascript&quot;&gt;\n/* &lt;![CDATA[ */!function(){try{var t=&quot;currentScript&quot;in document?document.currentScript:function(){for(var t=document.getElementsByTagName(&quot;script&quot;),e=t.length;e--;)if(t[e].getAttribute(&quot;cf-hash&quot;))return t[e]}();if(t&amp;&amp;t.previousSibling){var e,r,n,i,c=t.previousSibling,a=c.getAttribute(&quot;data-cfemail&quot;);if(a){for(e=&quot;&quot;,r=parseInt(a.substr(0,2),16),n=2;a.length-n;n+=2)i=parseInt(a.substr(n,2),16)^r,e+=String.fromCharCode(i);e=document.createTextNode(e),c.parentNode.replaceChild(e,c)}}}catch(u){}}();/* ]]&gt; */&lt;/script&gt;\n\nFormat settings, CABAC :Yes\n\nFormat settings, ReFrames :4 frames\n\nCodec ID :V_MPEG4/ISO/AVC\n\nDuration :2h 15mn\n\nBit rate :1 345 Kbps\n\nWidth :720 pixels\n\nHeight :304 pixels\n\nDisplay aspect ratio :2.35:1\n\nFrame rate mode :Constant\n\nFrame rate :25.000 fps\n\nColor space :YUV\n\nChroma subsampling :4:2:0\n\nBit depth :8 bits\n\nScan type :Progressive\n\nBits/(Pixel*Frame) :0.246\n\nStream size :1.25 GiB (86%)\n\nWriting library :x264 core 129 r2245 bc13772\n\nAudio\n\nID :2\n\nFormat :AC-3\n\nFormat/Info :Audio Coding 3\n\nMode extension :CM (complete main)\n\nFormat settings, Endianness :Big\n\nCodec ID :A_AC3\n\nDuration :2h 15mn\n\nBit rate mode :Constant\n\nBit rate :192 Kbps\n\nChannel(s) :2 channels\n\nChannel positions :Front: L R\n\nSampling rate :48.0 KHz\n\nBit depth :16 bits\n\nCompression mode :Lossy\n\nStream size :186 MiB (12%)\n\nDefault :Yes\n\nForced :No","torrent":{"xt":"urn:btih:c903417d5f4a715666ab3981a813119623b461db","amp;dn":"Solomon.and.Sheba.1959.DVDRip.x264-PsiX","amp;tr":["udp%3A%2F%2Ftracker.openbittorrent.com%3A80","udp%3A%2F%2Fopen.demonii.com%3A1337","udp%3A%2F%2Ftracker.coppersurfer.tk%3A6969","udp%3A%2F%2Fexodus.desync.com%3A6969"],"infoHash":"c903417d5f4a715666ab3981a813119623b461db","infoHashBuffer":{"type":"Buffer","data":[201,3,65,125,95,74,113,86,102,171,57,129,168,19,17,150,35,180,97,219]},"announce":[],"urlList":[]}}